# xmcd
#
# Track frame offsets: 
#        150
#        16406
#        38203
#        60364
#        79229
#        101217
#        126264
#        149798
#        172115
#        195885
#        222750
#
# Disc length: 3302 seconds
#
# Revision: 0
# Processed by: cddbd v1.5.2PL0 Copyright (c) Steve Scherf et al.
# Submitted via: ExactAudioCopy v0.95b4
#
DISCID=9d0ce40b
DTITLE=Logistics - Now More Than Ever [CD2 - More than ever)
DYEAR=2006
DGENRE=drum and bass
TTITLE0=Welcome to the future
TTITLE1=Girl from Mars
TTITLE2=The divide
TTITLE3=Time to give it up
TTITLE4=Release the pressure
TTITLE5=Inhale
TTITLE6=Colour wheel
TTITLE7=Depth charge
TTITLE8=Red sky at night
TTITLE9=Juno six
TTITLE10=Now more than ever
EXTD=
EXTT0=
EXTT1=
EXTT2=
EXTT3=
EXTT4=
EXTT5=
EXTT6=
EXTT7=
EXTT8=
EXTT9=
EXTT10=
PLAYORDER=
